<?xml version="1.0" encoding="UTF-8"?>
<svg id="Warstwa_2" data-name="Warstwa 2" xmlns="http://www.w3.org/2000/svg" viewBox="0 0 1024 1024">
  <defs>
    <style>
      .cls-1 {
        fill: #f0898f;
      }

      .cls-1, .cls-2, .cls-3, .cls-4, .cls-5 {
        stroke-width: 0px;
      }

      .cls-2 {
        fill: #7f5154;
      }

      .cls-3 {
        fill: #e62c3c;
      }

      .cls-4 {
        fill: #b41d2a;
      }

      .cls-5 {
        fill: #182330;
      }
    </style>
  </defs>
  <g id="Warstwa_1-2" data-name="Warstwa 1">
    <g>
      <path class="cls-3" d="M330.05,798.25c-7.78-2.5-15.55-5.03-23.34-7.48-11.2-3.53-19.69-11.23-28.54-18.4-23.28-18.84-37.27-43.46-44.41-72.19-5.7-22.95-3.57-46.42-3.62-69.68-.23-92.31,0-184.62-.1-276.93-.03-30.62,9.08-58.26,27.85-82.15,25.73-32.75,59.54-51.29,101.64-51.69,60.59-.59,121.18-.27,181.77-.23,42.78.03,85.57-.4,128.33.56,37.25.83,68.21,16.03,93.08,44.2,22.48,25.47,33.96,54.79,34,88.67.11,106.14.33,212.28.19,318.41-.04,30.12-10.22,56.89-28.76,80.72-8.72,11.21-18.09,21.82-29.97,29.28-16.26,10.21-34.05,17.31-53.34,19.83-1.28.17-2.61-.08-3.92-.13-2-.04-3.99-.1-5.99-.1-98.53-.02-197.07.03-295.6-.14-14.74-.03-29.47-1.13-44.21-1.74,0,0-.14.21-.15.21-1.64-.34-3.27-.68-4.91-1.02ZM377.5,570.59c0,15.99-.12,31.99.08,47.98.05,3.84-1.22,4.91-4.88,4.72-5.65-.29-11.37-.58-16.95.04-3.41.38-7.18,1.79-9.82,3.94-6.65,5.43-8.62,14.3-5.68,21.7,2.86,7.21,10.03,11.91,18.54,11.92,24.97.04,49.93,0,74.9,0,8.29,0,8.26.01,10.77,7.66.88,2.68,1.95,5.31,3.02,7.92,11.63,28.36,40.68,46.39,71.5,44.38,28.2-1.84,56.91-25.31,64.04-53.13,1.42-5.53,3.49-7.01,8.9-6.95,25.96.28,51.93.21,77.9.11,9.72-.04,18.21-9.25,18.25-19.37.03-10.3-7.97-18.34-18.32-18.4-4.99-.03-10-.2-14.98.07-3.73.2-4.85-1.11-4.79-4.84.25-14.82.39-29.66.18-44.48-.36-26.41.05-52.9-1.86-79.21-1.45-19.95-9.55-38.42-21.14-54.78-15.83-22.34-36.1-39.37-62.08-49.1-1.95-.73-4.65-3.73-4.43-5.33,1.41-10.44-.14-20.14-4.96-29.5-8.41-16.35-21.41-26.16-39.92-26.86-20.02-.76-34.56,9.24-44.32,26.11-5.32,9.19-6.63,19.6-5.68,30.17.26,2.92-.62,4.7-3.49,5.66-16.45,5.47-30.71,14.48-43.27,26.43-20.35,19.35-34.22,42.49-39.27,70.14-2.2,12.08-1.92,24.66-2.2,37.02-.34,15.32-.08,30.65-.07,45.98ZM316.93,488.28l.87.09c0,4.16-.12,8.33.03,12.49.29,8.26,6.58,17.03,14.65,18.22,4.46.66,10.56-.3,13.82-3.03,5.71-4.77,6.03-12.35,5.78-19.78-.52-15.04-.51-30.06,2.53-44.98,3.1-15.21,8.9-29.23,16.52-42.63,8.48-14.91,20.43-27,31.84-39.53,3.75-4.12,6.5-12.76,4.11-16.5-5.33-8.32-17.37-13.45-26.77-6.59-14.61,10.65-24.41,25.39-33.73,40.32-5.99,9.6-10.83,20.02-15.32,30.45-3.78,8.77-7.48,17.87-9.16,27.2-2.63,14.59-3.53,29.5-5.17,44.28ZM675.23,486.39c0,7.23-.21,12.9.05,18.55.36,7.74,7.26,14.27,15.03,14.63,8.16.37,15.76-5.34,16.82-12.94.75-5.4,1.45-10.85,1.56-16.29.45-21.11-2.1-41.84-8.66-61.97-9.22-28.25-24.55-52.87-44.88-74.38-3.58-3.79-7.91-7.22-12.52-9.61-6.86-3.55-14.85-.67-19.69,6.03-4.81,6.64-4.47,12.92,1.06,19.21,1.76,2,3.5,4.02,5.39,5.9,31.1,31.02,47.42,68.07,45.84,110.88Z"/>
      <path class="cls-4" d="M335.1,799.06c14.74.61,29.47,1.72,44.21,1.74,98.53.18,197.07.12,295.6.14,2,0,3.99.07,5.99.1-3.57.4-7.14,1.15-10.7,1.16-70.58.11-141.17.15-211.75.17-31.96.01-63.93.19-95.89-.22-9.16-.12-18.31-2.02-27.46-3.1Z"/>
      <path class="cls-4" d="M330.05,798.25c1.63.34,3.27.68,4.91,1.02-1.63-.34-3.27-.68-4.91-1.02Z"/>
      <path class="cls-5" d="M377.49,570.59c0-15.33-.26-30.66.07-45.98.27-12.36,0-24.94,2.2-37.02,5.05-27.65,18.91-50.79,39.27-70.14,12.56-11.94,26.82-20.95,43.27-26.43,2.87-.96,3.75-2.74,3.49-5.66-.95-10.58.37-20.99,5.68-30.17,9.76-16.87,24.3-26.87,44.32-26.11,18.51.7,31.51,10.51,39.92,26.86,4.82,9.36,6.37,19.06,4.96,29.5-.22,1.6,2.48,4.6,4.43,5.33,25.98,9.73,46.25,26.76,62.08,49.1,11.59,16.36,19.69,34.83,21.14,54.78,1.91,26.31,1.5,52.79,1.86,79.21.2,14.82.06,29.66-.18,44.48-.06,3.74,1.06,5.04,4.79,4.84,4.98-.26,9.98-.09,14.98-.07,10.36.06,18.36,8.11,18.32,18.4-.03,10.12-8.52,19.33-18.25,19.37-25.97.1-51.93.16-77.9-.11-5.42-.06-7.48,1.42-8.9,6.95-7.13,27.82-35.83,51.29-64.04,53.13-30.82,2.01-59.87-16.01-71.5-44.38-1.07-2.61-2.14-5.24-3.02-7.92-2.51-7.65-2.47-7.66-10.77-7.66-24.97,0-49.93.04-74.9,0-8.51-.01-15.68-4.72-18.54-11.92-2.94-7.4-.97-16.27,5.68-21.7,2.63-2.15,6.41-3.56,9.82-3.94,5.59-.62,11.31-.33,16.95-.04,3.66.19,4.92-.88,4.88-4.72-.2-15.99-.08-31.99-.09-47.98ZM410.2,620.92c.02.39.03.79.05,1.18,3.12.24,6.25.48,9.37.73,1.16.08,2.32.23,3.48.23,62.08.03,124.16.05,186.24.03,1.45,0,2.91-.66,4.34-.59,3.32.16,3.44-1.7,3.44-4.31-.05-30.15.02-60.31.02-90.46,0-16.63-.66-32.93-7.58-48.74-5.38-12.3-12.52-23.01-21.26-32.91-6.78-6.09-12.29-13.23-21.13-17.42-10.94-5.19-21.71-10.68-33.65-12.46-9.71-1.45-19.72-1.86-29.53-1.36-13.37.68-26.03,4.84-37.93,11.1-11.4,5.03-21.73,11.86-29.52,21.53-6.45,8-11.53,17.11-17.22,25.73-.18.29-.36.58-.54.86l-1.36,3.04c-5.19,11.33-7.08,23.27-7.07,35.67.05,36.05-.09,72.11-.15,108.16ZM513.68,660.82c0-.06,0-.12,0-.18-9.3,0-18.6.11-27.89-.05-3.86-.07-5.09.71-3.46,4.79,5.19,12.96,17.92,21.54,32.38,21.43,12.04-.09,25.98-10.1,30.37-21.7,1.17-3.1.71-4.43-3.01-4.35-9.46.2-18.93.07-28.39.07ZM499.24,376.43c.1,2.68-.89,5.71,3.95,5.47,7.24-.36,14.52.09,21.77-.09,1.14-.03,3.05-1.36,3.25-2.37,1.69-8.42-4.9-16.71-13.55-17.4-9.2-.73-15.34,5-15.43,14.39Z"/>
      <path class="cls-5" d="M316.93,488.28c1.63-14.77,2.53-29.68,5.17-44.28,1.68-9.33,5.37-18.43,9.16-27.2,4.49-10.42,9.33-20.84,15.32-30.45,9.32-14.93,19.12-29.67,33.73-40.32,9.4-6.86,21.44-1.73,26.77,6.59,2.39,3.74-.36,12.38-4.11,16.5-11.4,12.53-23.35,24.62-31.84,39.53-7.62,13.4-13.42,27.41-16.52,42.63-3.04,14.92-3.05,29.94-2.53,44.98.26,7.43-.07,15.01-5.78,19.78-3.27,2.73-9.36,3.69-13.82,3.03-8.07-1.19-14.36-9.96-14.65-18.22-.15-4.16-.03-8.32-.03-12.49l-.87-.09Z"/>
      <path class="cls-5" d="M675.23,486.39c1.58-42.8-14.73-79.85-45.84-110.88-1.88-1.88-3.63-3.9-5.39-5.9-5.53-6.29-5.86-12.57-1.06-19.21,4.84-6.69,12.84-9.58,19.69-6.03,4.61,2.39,8.94,5.82,12.52,9.61,20.33,21.5,35.66,46.12,44.88,74.38,6.57,20.13,9.12,40.86,8.66,61.97-.12,5.44-.81,10.89-1.56,16.29-1.06,7.6-8.67,13.31-16.82,12.94-7.77-.35-14.67-6.88-15.03-14.63-.27-5.65-.05-11.32-.05-18.55Z"/>
      <path class="cls-3" d="M588.31,446.07c8.75,9.9,15.88,20.6,21.26,32.91,6.91,15.81,7.58,32.12,7.58,48.74,0,30.15-.07,60.31-.02,90.46,0,2.61-.12,4.47-3.44,4.31-1.43-.07-2.89.59-4.34.59-62.08.02-124.16,0-186.24-.03-1.16,0-2.32-.15-3.48-.23.9-1.36,1.63-2.88,2.73-4.06,9.74-10.47,19.47-20.95,29.36-31.28,33.48-34.97,67.03-69.88,100.54-104.82,2.53-2.64,4.92-5.41,7.5-8.01,9.49-9.56,19.03-19.06,28.56-28.59Z"/>
      <path class="cls-1" d="M588.31,446.07c-9.52,9.52-19.06,19.03-28.56,28.59-2.58,2.59-4.97,5.37-7.5,8.01-33.51,34.94-67.06,69.85-100.54,104.82-9.89,10.33-19.61,20.81-29.36,31.28-1.1,1.18-1.83,2.7-2.73,4.06-3.12-.24-6.25-.48-9.37-.73-.02-.39-.03-.79-.05-1.18.06-36.05.2-72.11.15-108.16-.02-12.41,1.88-24.34,7.07-35.67.45-1.01.9-2.03,1.35-3.04.18-.29.36-.58.54-.87.72-.41,1.52-.71,2.13-1.24,5.51-4.8,10.99-9.61,16.45-14.47,1.24-1.1,2.53-2.23,3.45-3.58,6.34-9.35,12.76-18.58,22.68-24.66.98-.6,1.37-2.18,2.03-3.3,11.9-6.27,24.56-10.42,37.93-11.1,9.81-.5,19.82-.08,29.53,1.36,11.94,1.78,22.71,7.27,33.65,12.46,8.84,4.19,14.35,11.33,21.13,17.42ZM478.58,450.55c-4.45,1.57-9.37,2.41-13.24,4.89-5.4,3.46-10.33,7.84-14.9,12.39-8.31,8.26-12.91,18.51-13.94,30.17-.71,8.08,4.27,15.25,11.14,16.88,7.74,1.83,13.74-1.34,17.59-9.35.58-1.2,1.02-2.46,1.51-3.7,2.96-7.52,7.64-13.52,14.81-17.57,3.01-1.7,5.89-3.81,8.37-6.22,4.68-4.55,7.25-10.07,4.89-16.69-2.28-6.38-8.01-9.75-16.22-10.81Z"/>
      <path class="cls-1" d="M513.68,660.82c9.46,0,18.93.13,28.39-.07,3.72-.08,4.19,1.24,3.01,4.35-4.39,11.6-18.33,21.61-30.37,21.7-14.46.11-27.19-8.47-32.38-21.43-1.63-4.07-.4-4.86,3.46-4.79,9.29.17,18.59.05,27.89.05,0,.06,0,.12,0,.18Z"/>
      <path class="cls-3" d="M499.24,376.43c.09-9.39,6.23-15.12,15.43-14.39,8.65.69,15.24,8.98,13.55,17.4-.2,1-2.11,2.34-3.25,2.37-7.25.18-14.53-.27-21.77.09-4.84.24-3.85-2.79-3.95-5.47Z"/>
      <path class="cls-2" d="M410.2,620.92c.02.39.03.79.05,1.18-.02-.39-.03-.79-.05-1.18Z"/>
    </g>
  </g>
</svg>